<svg width="63" height="90" viewBox="0 0 63 114" fill="none" xmlns="http://www.w3.org/2000/svg">
<path d="M31.0532 107.879V41.082H10.1548V40.5938L14.1099 32.1953H61.7173V32.6836L57.7622 41.082H40.8188V103.484L31.5415 107.879H31.0532Z" fill="#F58840"/>
<path d="M30.1426 106.953V40.1562H9.24414V39.668L13.1992 31.2695H60.8066V31.7578L56.8516 40.1562H39.9082V102.559L30.6309 106.953H30.1426Z" fill="#32746C"/>
<path d="M29.0713 105.894V39.0967H8.17285V38.6084L12.1279 30.21H59.7354V30.6982L55.7803 39.0967H38.8369V101.499L29.5596 105.894H29.0713Z" fill="#F58840"/>
<path d="M28.1426 104.953V38.1562H7.24414V37.668L11.1992 29.2695H58.8066V29.7578L54.8516 38.1562H37.9082V100.559L28.6309 104.953H28.1426Z" fill="#32746C"/>
<path d="M27.0889 103.908V37.1113H6.19043V36.623L10.1455 28.2246H57.7529V28.7129L53.7979 37.1113H36.8545V99.5137L27.5771 103.908H27.0889Z" fill="#F58840"/>
<path d="M26.1426 102.953V36.1562H5.24414V35.668L9.19922 27.2695H56.8066V27.7578L52.8516 36.1562H35.9082V98.5586L26.6309 102.953H26.1426Z" fill="#32746C"/>
<path d="M25.1069 101.923V35.126H4.2085V34.6377L8.16357 26.2393H55.771V26.7275L51.8159 35.126H34.8726V97.5283L25.5952 101.923H25.1069Z" fill="#F58840"/>
<path d="M24.1426 100.953V34.1562H3.24414V33.668L7.19922 25.2695H54.8066V25.7578L50.8516 34.1562H33.9082V96.5586L24.6309 100.953H24.1426Z" fill="#32746C"/>
<path d="M23.1069 100.026V33.2295H2.2085V32.7412L6.16357 24.3428H53.771V24.8311L49.8159 33.2295H32.8726V95.6318L23.5952 100.026H23.1069Z" fill="#F58840"/>
<path d="M22.125 98.9902V32.1934H1.22656V31.7051L5.18164 23.3066H52.7891V23.7949L48.834 32.1934H31.8906V94.5957L22.6133 98.9902H22.125Z" fill="#32746C"/>
<path d="M21.1426 97.9531V31.1562H0.244141V30.668L4.19922 22.2695H51.8066V22.7578L47.8516 31.1562H30.9082V93.5586L21.6309 97.9531H21.1426Z" fill="#F58840"/>
</svg>
