<svg width="118" height="100" viewBox="0 0 118 221" fill="none" xmlns="http://www.w3.org/2000/svg">
<path d="M52.2852 205.906V72.3125H10.4883V71.3359L18.3984 54.5391H113.613V55.5156L105.703 72.3125H71.8164V197.117L53.2617 205.906H52.2852Z" fill="#F58840"/>
<path d="M51.2852 204.906V71.3125H9.48828V70.3359L17.3984 53.5391H112.613V54.5156L104.703 71.3125H70.8164V196.117L52.2617 204.906H51.2852Z" fill="#32746C"/>
<path d="M50.2852 203.906V70.3125H8.48828V69.3359L16.3984 52.5391H111.613V53.5156L103.703 70.3125H69.8164V195.117L51.2617 203.906H50.2852Z" fill="#F58840"/>
<path d="M49.2852 202.906V69.3125H7.48828V68.3359L15.3984 51.5391H110.613V52.5156L102.703 69.3125H68.8164V194.117L50.2617 202.906H49.2852Z" fill="#32746C"/>
<path d="M48.2852 201.906V68.3125H6.48828V67.3359L14.3984 50.5391H109.613V51.5156L101.703 68.3125H67.8164V193.117L49.2617 201.906H48.2852Z" fill="#F58840"/>
<path d="M47.2852 200.906V67.3125H5.48828V66.3359L13.3984 49.5391H108.613V50.5156L100.703 67.3125H66.8164V192.117L48.2617 200.906H47.2852Z" fill="#32746C"/>
<path d="M46.2852 199.906V66.3125H4.48828V65.3359L12.3984 48.5391H107.613V49.5156L99.7031 66.3125H65.8164V191.117L47.2617 199.906H46.2852Z" fill="#F58840"/>
<path d="M45.2852 198.906V65.3125H3.48828V64.3359L11.3984 47.5391H106.613V48.5156L98.7031 65.3125H64.8164V190.117L46.2617 198.906H45.2852Z" fill="#32746C"/>
<path d="M44.2852 197.906V64.3125H2.48828V63.3359L10.3984 46.5391H105.613V47.5156L97.7031 64.3125H63.8164V189.117L45.2617 197.906H44.2852Z" fill="#F58840"/>
<path d="M43.2852 196.906V63.3125H1.48828V62.3359L9.39844 45.5391H104.613V46.5156L96.7031 63.3125H62.8164V188.117L44.2617 196.906H43.2852Z" fill="#32746C"/>
<path d="M42.2852 195.906V62.3125H0.488281V61.3359L8.39844 44.5391H103.613V45.5156L95.7031 62.3125H61.8164V187.117L43.2617 195.906H42.2852Z" fill="#F58840"/>
</svg>
