<svg width="569" height="742" viewBox="0 0 569 742" fill="none" xmlns="http://www.w3.org/2000/svg">
<path d="M485.845 835.47L2.39723 730.139C2.39723 730.139 57.5678 636.524 219.927 577.601C382.286 518.679 424.332 445.984 391.312 298.253C358.293 150.522 636.547 105.579 636.547 105.579L485.845 835.47Z" fill="url(#paint0_linear_1253_5568)"/>
<mask id="mask0_1253_5568" style="mask-type:alpha" maskUnits="userSpaceOnUse" x="2" y="105" width="635" height="731">
<path d="M485.845 835.47L2.39723 730.139C2.39723 730.139 57.5678 636.524 219.927 577.601C382.286 518.679 424.332 445.984 391.312 298.253C358.293 150.522 636.547 105.579 636.547 105.579L485.845 835.47Z" fill="url(#paint1_linear_1253_5568)"/>
</mask>
<g mask="url(#mask0_1253_5568)">
<g filter="url(#filter0_f_1253_5568)">
<path d="M111.558 315.196C207.795 177.496 310.007 51.316 398.939 90.1604C471.153 139.415 488.525 265.144 416.408 444.394C344.291 623.643 97.9765 674.124 9.0437 635.28C-79.8891 596.436 15.3222 452.895 111.558 315.196Z" fill="url(#paint2_linear_1253_5568)"/>
</g>
</g>
<defs>
<filter id="filter0_f_1253_5568" x="-76.3691" y="33.0293" width="588.947" height="664.541" filterUnits="userSpaceOnUse" color-interpolation-filters="sRGB">
<feFlood flood-opacity="0" result="BackgroundImageFix"/>
<feBlend mode="normal" in="SourceGraphic" in2="BackgroundImageFix" result="shape"/>
<feGaussianBlur stdDeviation="25" result="effect1_foregroundBlur_1253_5568"/>
</filter>
<linearGradient id="paint0_linear_1253_5568" x1="438.132" y1="768.974" x2="350.828" y2="441.332" gradientUnits="userSpaceOnUse">
<stop stop-color="#320421"/>
<stop offset="1" stop-color="#502B76"/>
</linearGradient>
<linearGradient id="paint1_linear_1253_5568" x1="438.132" y1="768.974" x2="350.828" y2="441.332" gradientUnits="userSpaceOnUse">
<stop stop-color="#320421"/>
<stop offset="1" stop-color="#502B76"/>
</linearGradient>
<linearGradient id="paint2_linear_1253_5568" x1="358.763" y1="477.818" x2="582.339" y2="321.259" gradientUnits="userSpaceOnUse">
<stop stop-color="#7FC7DC" stop-opacity="0.9"/>
<stop offset="1" stop-color="#7FC7DC" stop-opacity="0.21"/>
</linearGradient>
</defs>
</svg>
